PathFileType	4	(X/Y/Z)	C:/Users/opensim2020/Desktop/walking_exp_matlab/subject03_walking14_straight_03.trc																																																																																																																																											
DataRate	CameraRate	NumFrames	NumMarkers	Units	OrigDataRate	OrigDataStartFrame	OrigNumFrames																																																																																																																																							
100	100	6	47	mm	100	1743	215																																																																																																																																							
Frame#	Time	LFHD			RFHD			LBHD			RBHD			C7			T10			CLAV			STRN			RBAK			LSHO			LUPA			LELB			LFRM			LWRA			LWRB			LFIN			RSHO			RUPA			RELB			RFRM			RWRA			RWRB			RFIN			LASI			RASI			LPSI			RPSI			LTHI			LKNE			LTIB			LANK			LHEE			LTOE			RTHI			RKNE			RTIB			RANK			RHEE			RTOE			*39			*40			*41			*42			*43			*44			*45			*46		
		X1	Y1	Z1	X2	Y2	Z2	X3	Y3	Z3	X4	Y4	Z4	X5	Y5	Z5	X6	Y6	Z6	X7	Y7	Z7	X8	Y8	Z8	X9	Y9	Z9	X10	Y10	Z10	X11	Y11	Z11	X12	Y12	Z12	X13	Y13	Z13	X14	Y14	Z14	X15	Y15	Z15	X16	Y16	Z16	X17	Y17	Z17	X18	Y18	Z18	X19	Y19	Z19	X20	Y20	Z20	X21	Y21	Z21	X22	Y22	Z22	X23	Y23	Z23	X24	Y24	Z24	X25	Y25	Z25	X26	Y26	Z26	X27	Y27	Z27	X28	Y28	Z28	X29	Y29	Z29	X30	Y30	Z30	X31	Y31	Z31	X32	Y32	Z32	X33	Y33	Z33	X34	Y34	Z34	X35	Y35	Z35	X36	Y36	Z36	X37	Y37	Z37	X38	Y38	Z38	X39	Y39	Z39	X40	Y40	Z40	X41	Y41	Z41	X42	Y42	Z42	X43	Y43	Z43	X44	Y44	Z44	X45	Y45	Z45	X46	Y46	Z46	X47	Y47	Z47
																																																																																																																																														
162	1.61	531.12958	1608.12537	1382.97498	542.59619	1615.67969	1514.68835	412.98151	1546.11975	1401.54895	429.20093	1553.91882	1530.79749	399.70078	1398.67212	1447.3385	377.25058	1083.9574	1434.00476	522.26099	1324.25781	1449.74927	571.27002	1161.29163	1447.53064	345.96216	1221.1908	1537.9137	481.85861	1362.25342	1291.77234	448.27509	1166.02173	1218.93079	435.84326	1043.44714	1204.44434	429.11121	912.61249	1197.90881	407.23441	791.38373	1222.03223	395.45074	806.97565	1166.40576	353.51361	727.08807	1176.98853	467.70682	1348.09399	1607.4353	509.20471	1140.15906	1694.99719	561.10016	1043.0918	1715.16321	648.57867	939.23352	1713.96191	727.21155	882.26917	1674.58533	704.06934	855.84937	1715.51465	765.55579	816.06396	1705.49561	562.42682	924.81775	1339.26086	524.01672	924.17841	1574.72009	395.85135	941.39648	1358.35498	371.40573	955.01563	1506.15955	583.77417	627.17767	1287.03381	655.16913	471.63776	1339.61755	681.80542	282.04626	1329.76038	742.32111	79.01006	1364.92749	712.60608	30.06072	1398.97815	889.76538	93.4415	1402.88257	413.41467	640.55194	1602.13086	383.12357	463.64465	1564.92932	277.35312	299.48645	1561.74768	183.06049	103.77927	1507.12659	133.75711	86.66884	1454.54102	312.0542	34.70716	1491.77087	NaN	NaN	NaN	444.13104	1654.21704	1439.19995	NaN	NaN	NaN	NaN	NaN	NaN	NaN	NaN	NaN	NaN	NaN	NaN	NaN	NaN	NaN	NaN	NaN	NaN
163	1.62	543.90167	1606.95435	1381.91931	555.34521	1614.76331	1513.6615	425.90634	1544.5979	1400.65613	442.11234	1552.65613	1529.85803	413.27347	1397.22473	1446.15247	391.67166	1082.47107	1433.94641	535.96271	1323.13513	1449.27722	585.53149	1160.34143	1447.70068	359.49664	1219.49048	1536.57861	496.1658	1360.77795	1291.02185	461.13837	1164.91211	1217.75391	447.16013	1042.40369	1203.14722	438.6106	911.8349	1196.21289	415.04965	790.84027	1219.97021	403.61261	806.64124	1164.2583	358.78302	727.86121	1175.49963	480.31552	1347.04053	1606.76086	521.75653	1139.24048	1694.66284	574.16638	1042.69348	1715.20483	663.26099	940.49414	1713.89148	743.20636	885.41815	1674.59619	720.38135	858.19446	1715.14038	782.66315	819.74677	1705.22083	577.62976	924.39032	1339.76147	537.99219	922.1449	1574.97949	409.92062	941.15607	1358.22681	386.02136	953.6181	1506.00769	601.25165	627.61481	1288.46094	671.40509	471.97769	1340.64209	696.14386	281.06696	1331.05444	753.85059	77.2913	1367.30676	723.21106	28.7514	1400.66162	900.76416	90.43835	1407.81299	424.77722	639.46643	1602.41345	393.17902	462.68497	1565.73425	284.07977	300.52817	1562.4436	185.20134	107.07317	1508.09192	135.56194	91.24912	1455.6377	312.2301	34.52227	1491.96069	NaN	NaN	NaN	456.69556	1652.75952	1437.71912	NaN	NaN	NaN	NaN	NaN	NaN	NaN	NaN	NaN	NaN	NaN	NaN	NaN	NaN	NaN	NaN	NaN	NaN
164	1.63	556.73138	1605.8949	1380.79272	568.10736	1613.86121	1512.48206	438.80923	1543.26111	1399.65027	455.0434	1551.52625	1528.75977	426.72931	1395.60498	1444.97925	406.48254	1081.26819	1434.0929	549.77399	1322.1709	1448.77808	599.98688	1159.59888	1447.72656	373.33237	1217.76636	1535.26904	510.46466	1359.50317	1290.2113	474.38354	1163.94922	1216.66516	458.8909	1041.86816	1201.9873	448.69778	911.20813	1194.4447	423.80539	790.42462	1217.85791	412.50699	806.52716	1162.00818	365.70825	728.63129	1173.75269	493.05029	1346.25317	1606.03455	534.19012	1138.41833	1694.19824	586.57739	1042.09131	1714.67896	677.38702	941.63324	1713.68274	758.5614	888.42358	1674.6825	735.883	860.26752	1714.66089	799.21161	823.40692	1705.11206	593.1059	924.17725	1340.09692	552.47375	920.19543	1575.13403	425.00574	940.7475	1358.40649	400.91281	952.33539	1506.03979	619.50092	628.43451	1289.39282	687.83679	472.4332	1342.49939	709.05536	279.59308	1332.86182	762.86841	75.11227	1369.8822	730.4361	28.35528	1402.24585	908.90155	85.64979	1412.20435	436.68115	638.49268	1602.74805	403.97092	461.74606	1566.74451	291.3573	301.78958	1563.3689	187.73915	110.71994	1509.5238	137.76836	96.44508	1456.94421	312.78455	34.53215	1492.19946	NaN	NaN	NaN	469.54584	1651.77905	1437.13818	NaN	NaN	NaN	NaN	NaN	NaN	NaN	NaN	NaN	NaN	NaN	NaN	NaN	NaN	NaN	NaN	NaN	NaN
165	1.64	569.50067	1604.94226	1379.58179	581.77289	1613.5968	1512.25793	451.78635	1542.04858	1398.58386	467.97903	1550.47949	1527.63293	440.30145	1394.12341	1443.73584	421.24591	1079.70679	1434.16016	563.62396	1321.29126	1448.06982	614.66302	1158.98853	1447.63879	387.36206	1216.27197	1534.08337	524.69727	1358.3208	1289.33008	487.83313	1163.03223	1215.53992	471.19946	1041.11719	1200.63342	459.40552	910.68701	1192.58972	433.5524	790.08563	1215.6626	422.20871	806.43127	1160.18005	374.16086	729.15546	1171.77441	505.88434	1345.62256	1605.13037	546.47217	1137.62964	1693.51355	598.76788	1041.63062	1714.25891	690.75214	942.46381	1713.35461	773.24438	891.01605	1674.72229	750.64545	862.05756	1714.15649	814.677	826.43311	1704.90198	608.81586	923.96985	1340.23706	567.58728	918.38696	1575.14709	440.35495	940.37048	1358.56677	416.06827	951.14899	1506.06885	637.86005	629.15295	1290.19385	704.14508	472.24402	1344.00513	720.58002	277.6969	1335.46545	769.50531	72.74694	1372.61438	734.41937	29.06101	1403.11816	915.29462	77.79418	1415.74646	449.20502	637.53351	1602.93311	415.51306	460.8681	1567.9751	299.18588	303.22321	1564.48511	190.74838	114.75518	1510.91003	140.56688	102.21403	1458.38684	313.09473	34.28458	1492.42383	NaN	NaN	NaN	482.25406	1650.56262	1435.54395	NaN	NaN	NaN	NaN	NaN	NaN	NaN	NaN	NaN	NaN	NaN	NaN	NaN	NaN	NaN	NaN	NaN	NaN
166	1.65	582.37012	1604.17017	1378.27539	594.35278	1612.93298	1510.63086	464.84479	1540.91553	1397.39758	480.90347	1549.56299	1526.4436	453.67258	1392.87866	1442.34863	436.74451	1078.32202	1434.27039	577.61023	1320.64832	1447.31128	629.46893	1158.65747	1447.51099	401.54651	1214.76392	1532.84351	539.0799	1357.34753	1288.4231	501.72928	1162.22876	1214.2887	483.7905	1040.58801	1199.30603	470.8912	910.39563	1190.95605	444.31772	789.82495	1213.64294	432.81494	806.43445	1157.8728	384.43686	729.47156	1169.11707	518.79456	1345.14612	1604.09387	558.58319	1136.90503	1692.72815	610.7594	1041.19092	1713.67017	703.80286	943.15088	1712.99573	787.30841	893.2514	1674.83398	764.73035	863.45673	1713.64307	829.3905	828.92889	1704.698	624.42987	923.93457	1340.29761	583.05707	916.67279	1575.15967	455.78525	940.31665	1358.38831	431.32562	950.18787	1506.08594	656.28864	629.7525	1290.96033	720.23846	472.27295	1345.1344	732.30579	276.68271	1337.99976	774.26215	71.8577	1374.40283	735.53943	30.9433	1404.37402	919.75055	64.32947	1417.89563	462.46204	636.56476	1602.98486	427.7804	459.96463	1569.19873	307.63525	304.95264	1565.77112	194.51837	119.30112	1512.59668	144.02567	108.6524	1460.03394	313.65973	34.19617	1492.77441	NaN	NaN	NaN	494.97467	1649.54993	1434.1897	NaN	NaN	NaN	NaN	NaN	NaN	NaN	NaN	NaN	NaN	NaN	NaN	NaN	NaN	NaN	NaN	NaN	NaN
167	1.66	595.2121	1603.89771	1376.92395	607.45123	1613.10193	1509.71167	477.89874	1540.09839	1396.20215	493.92429	1549.05713	1525.21863	467.00873	1391.93079	1440.85413	452.32666	1077.11609	1434.30334	591.53119	1320.45203	1446.4967	644.26349	1158.88708	1447.32056	415.6402	1213.80774	1531.46326	553.42133	1356.5686	1287.41113	515.85931	1161.58252	1213.01807	496.79868	1040.09363	1197.93579	483.09656	910.12579	1189.28284	456.4837	789.66223	1210.80811	444.21487	806.19855	1156.42517	395.68622	729.2218	1167.75586	531.79089	1344.82361	1603.10693	570.61548	1136.31982	1691.83459	622.81982	1040.80286	1713.21533	716.44995	943.61023	1712.60559	800.7334	894.85059	1674.79504	778.1734	864.46869	1713.10754	843.32629	830.75916	1704.37512	639.8028	924.09998	1340.30249	598.92505	915.24084	1575.12708	471.32291	940.63867	1357.85388	447.14465	949.56799	1506.15125	673.9809	630.83081	1291.45349	736.41766	473.21921	1346.05347	743.6853	277.17361	1339.85706	777.91473	71.30816	1374.92664	736.69708	32.26626	1404.8241	921.65961	53.97768	1420.50098	476.48923	635.59412	1603.1416	441.09445	459.00049	1570.38281	317.05127	306.88403	1566.96997	198.93338	124.41879	1514.48596	148.34099	115.9252	1462.07703	314.36191	34.10156	1493.20081	NaN	NaN	NaN	507.15564	1648.12329	1430.71826	NaN	NaN	NaN	NaN	NaN	NaN	NaN	NaN	NaN	NaN	NaN	NaN	NaN	NaN	NaN	NaN	NaN	NaN
